<svg width="18" height="19" viewBox="0 0 18 19" fill="none" xmlns="http://www.w3.org/2000/svg">
<path d="M12.0175 17.8373C12.7294 18.2561 13.2988 18.3984 13.7427 18.3984C14.22 18.3984 14.555 18.2309 14.7644 18.0802C15.1496 17.7955 15.7442 17.0669 15.359 15.392L14.7644 12.821C14.7057 12.5446 14.8314 12.0924 15.0323 11.8914L17.1092 9.80617C18.1393 8.76773 18.0556 7.88003 17.9216 7.44453C17.7876 7.00905 17.3353 6.2386 15.8865 5.99574L13.2151 5.55189C12.9638 5.51001 12.6037 5.24203 12.4865 5.01592L11.0126 2.06809C10.3426 0.719787 9.46329 0.518799 9.00269 0.518799C8.54209 0.518799 7.66277 0.719787 6.99282 2.06809L5.51053 5.02429C5.40166 5.2504 5.04156 5.51839 4.79032 5.56026L2.11885 6.00411C0.678435 6.24697 0.226211 7.01743 0.0838438 7.4529C-0.058523 7.8884 -0.142268 8.7761 0.896173 9.81454L2.97305 11.8914C3.17404 12.0924 3.30803 12.553 3.24104 12.821L2.64645 15.392C2.25284 17.0669 2.85581 17.7955 3.24104 18.0802C3.63464 18.3649 4.50559 18.7167 5.98788 17.8373L8.50022 16.355C8.75146 16.2043 9.25393 16.2043 9.51354 16.355L12.0175 17.8373Z" fill="#260D25"/>
</svg>
